<svg width="287" height="56" viewBox="0 0 287 56" fill="none" xmlns="http://www.w3.org/2000/svg">
<path d="M62.648 36C62.296 36 62 35.88 61.76 35.64C61.52 35.4 61.4 35.104 61.4 34.752V18.504C61.4 18.136 61.52 17.84 61.76 17.616C62 17.376 62.296 17.256 62.648 17.256H67.448C68.648 17.256 69.712 17.52 70.64 18.048C71.568 18.576 72.288 19.312 72.8 20.256C73.328 21.184 73.592 22.256 73.592 23.472C73.592 24.64 73.328 25.68 72.8 26.592C72.288 27.504 71.568 28.216 70.64 28.728C69.712 29.24 68.648 29.496 67.448 29.496H63.896V34.752C63.896 35.104 63.776 35.4 63.536 35.64C63.312 35.88 63.016 36 62.648 36ZM63.896 27.192H67.448C68.184 27.192 68.832 27.032 69.392 26.712C69.952 26.392 70.392 25.952 70.712 25.392C71.032 24.832 71.192 24.192 71.192 23.472C71.192 22.704 71.032 22.032 70.712 21.456C70.392 20.864 69.952 20.4 69.392 20.064C68.832 19.728 68.184 19.56 67.448 19.56H63.896V27.192ZM81.8124 36.096C80.4844 36.096 79.3004 35.816 78.2604 35.256C77.2364 34.68 76.4284 33.896 75.8364 32.904C75.2604 31.896 74.9724 30.744 74.9724 29.448C74.9724 28.136 75.2444 26.984 75.7884 25.992C76.3484 24.984 77.1164 24.2 78.0924 23.64C79.0684 23.064 80.1884 22.776 81.4524 22.776C82.7004 22.776 83.7724 23.056 84.6684 23.616C85.5644 24.16 86.2444 24.92 86.7084 25.896C87.1884 26.856 87.4284 27.968 87.4284 29.232C87.4284 29.536 87.3244 29.792 87.1164 30C86.9084 30.192 86.6444 30.288 86.3244 30.288H76.6524V28.368H86.2524L85.2684 29.04C85.2524 28.24 85.0924 27.528 84.7884 26.904C84.4844 26.264 84.0524 25.76 83.4924 25.392C82.9324 25.024 82.2524 24.84 81.4524 24.84C80.5404 24.84 79.7564 25.04 79.1004 25.44C78.4604 25.84 77.9724 26.392 77.6364 27.096C77.3004 27.784 77.1324 28.568 77.1324 29.448C77.1324 30.328 77.3324 31.112 77.7324 31.8C78.1324 32.488 78.6844 33.032 79.3884 33.432C80.0924 33.832 80.9004 34.032 81.8124 34.032C82.3084 34.032 82.8124 33.944 83.3244 33.768C83.8524 33.576 84.2764 33.36 84.5964 33.12C84.8364 32.944 85.0924 32.856 85.3644 32.856C85.6524 32.84 85.9004 32.92 86.1084 33.096C86.3804 33.336 86.5244 33.6 86.5404 33.888C86.5564 34.176 86.4284 34.424 86.1564 34.632C85.6124 35.064 84.9324 35.416 84.1164 35.688C83.3164 35.96 82.5484 36.096 81.8124 36.096ZM91.7266 27.792C91.7266 26.832 91.9586 25.976 92.4226 25.224C92.9026 24.456 93.5426 23.848 94.3426 23.4C95.1426 22.952 96.0226 22.728 96.9826 22.728C97.9426 22.728 98.6546 22.888 99.1186 23.208C99.5986 23.512 99.7826 23.88 99.6706 24.312C99.6226 24.536 99.5266 24.712 99.3826 24.84C99.2546 24.952 99.1026 25.024 98.9266 25.056C98.7506 25.088 98.5586 25.08 98.3506 25.032C97.3266 24.824 96.4066 24.808 95.5906 24.984C94.7746 25.16 94.1266 25.488 93.6466 25.968C93.1826 26.448 92.9506 27.056 92.9506 27.792H91.7266ZM91.7506 36C91.3666 36 91.0706 35.904 90.8626 35.712C90.6546 35.504 90.5506 35.2 90.5506 34.8V24.072C90.5506 23.688 90.6546 23.392 90.8626 23.184C91.0706 22.976 91.3666 22.872 91.7506 22.872C92.1506 22.872 92.4466 22.976 92.6386 23.184C92.8466 23.376 92.9506 23.672 92.9506 24.072V34.8C92.9506 35.184 92.8466 35.48 92.6386 35.688C92.4466 35.896 92.1506 36 91.7506 36ZM106.999 36.096C105.879 36.096 104.839 35.928 103.879 35.592C102.935 35.24 102.199 34.8 101.671 34.272C101.431 34.016 101.327 33.728 101.359 33.408C101.407 33.072 101.567 32.8 101.839 32.592C102.159 32.336 102.471 32.232 102.775 32.28C103.095 32.312 103.367 32.448 103.59 32.688C103.863 32.992 104.295 33.28 104.887 33.552C105.495 33.808 106.167 33.936 106.903 33.936C107.831 33.936 108.535 33.784 109.015 33.48C109.511 33.176 109.767 32.784 109.783 32.304C109.799 31.824 109.567 31.408 109.087 31.056C108.623 30.704 107.767 30.416 106.519 30.192C104.903 29.872 103.727 29.392 102.991 28.752C102.271 28.112 101.911 27.328 101.911 26.4C101.911 25.584 102.151 24.912 102.631 24.384C103.111 23.84 103.727 23.44 104.479 23.184C105.231 22.912 106.015 22.776 106.831 22.776C107.887 22.776 108.823 22.944 109.639 23.28C110.455 23.616 111.103 24.08 111.583 24.672C111.807 24.928 111.911 25.2 111.895 25.488C111.879 25.76 111.743 25.992 111.487 26.184C111.231 26.36 110.927 26.416 110.575 26.352C110.223 26.288 109.927 26.144 109.687 25.92C109.287 25.536 108.855 25.272 108.391 25.128C107.927 24.984 107.391 24.912 106.783 24.912C106.079 24.912 105.479 25.032 104.983 25.272C104.503 25.512 104.263 25.864 104.263 26.328C104.263 26.616 104.335 26.88 104.479 27.12C104.639 27.344 104.943 27.552 105.391 27.744C105.839 27.92 106.495 28.096 107.359 28.272C108.559 28.512 109.503 28.816 110.191 29.184C110.895 29.552 111.399 29.984 111.703 30.48C112.007 30.96 112.159 31.52 112.159 32.16C112.159 32.896 111.959 33.56 111.559 34.152C111.175 34.744 110.599 35.216 109.831 35.568C109.079 35.92 108.135 36.096 106.999 36.096ZM121.206 36.096C119.91 36.096 118.766 35.816 117.774 35.256C116.782 34.68 115.998 33.896 115.422 32.904C114.862 31.896 114.582 30.744 114.582 29.448C114.582 28.136 114.862 26.984 115.422 25.992C115.998 24.984 116.782 24.2 117.774 23.64C118.766 23.064 119.91 22.776 121.206 22.776C122.486 22.776 123.622 23.064 124.614 23.64C125.606 24.2 126.382 24.984 126.942 25.992C127.518 26.984 127.806 28.136 127.806 29.448C127.806 30.744 127.526 31.896 126.966 32.904C126.406 33.896 125.63 34.68 124.638 35.256C123.646 35.816 122.502 36.096 121.206 36.096ZM121.206 33.936C122.038 33.936 122.774 33.744 123.414 33.36C124.054 32.976 124.55 32.448 124.902 31.776C125.27 31.104 125.454 30.328 125.454 29.448C125.454 28.568 125.27 27.792 124.902 27.12C124.55 26.432 124.054 25.896 123.414 25.512C122.774 25.128 122.038 24.936 121.206 24.936C120.374 24.936 119.638 25.128 118.998 25.512C118.358 25.896 117.854 26.432 117.486 27.12C117.118 27.792 116.934 28.568 116.934 29.448C116.934 30.328 117.118 31.104 117.486 31.776C117.854 32.448 118.358 32.976 118.998 33.36C119.638 33.744 120.374 33.936 121.206 33.936ZM142.537 36.024C142.185 36.024 141.889 35.912 141.649 35.688C141.425 35.448 141.313 35.152 141.313 34.8V28.896C141.313 27.984 141.145 27.24 140.809 26.664C140.473 26.088 140.017 25.664 139.441 25.392C138.881 25.104 138.233 24.96 137.497 24.96C136.825 24.96 136.217 25.096 135.673 25.368C135.129 25.64 134.697 26.008 134.377 26.472C134.057 26.92 133.897 27.44 133.897 28.032H132.385C132.385 27.024 132.625 26.128 133.105 25.344C133.601 24.544 134.273 23.912 135.121 23.448C135.969 22.984 136.921 22.752 137.977 22.752C139.081 22.752 140.065 22.992 140.929 23.472C141.809 23.936 142.497 24.624 142.993 25.536C143.505 26.448 143.761 27.568 143.761 28.896V34.8C143.761 35.152 143.641 35.448 143.401 35.688C143.177 35.912 142.889 36.024 142.537 36.024ZM132.673 36.024C132.321 36.024 132.025 35.912 131.785 35.688C131.561 35.448 131.449 35.152 131.449 34.8V24.096C131.449 23.728 131.561 23.432 131.785 23.208C132.025 22.984 132.321 22.872 132.673 22.872C133.041 22.872 133.337 22.984 133.561 23.208C133.785 23.432 133.897 23.728 133.897 24.096V34.8C133.897 35.152 133.785 35.448 133.561 35.688C133.337 35.912 133.041 36.024 132.673 36.024ZM153.28 36.096C152.112 36.096 151.064 35.808 150.136 35.232C149.208 34.64 148.472 33.848 147.928 32.856C147.4 31.848 147.136 30.712 147.136 29.448C147.136 28.184 147.424 27.048 148 26.04C148.592 25.032 149.384 24.24 150.376 23.664C151.384 23.072 152.512 22.776 153.76 22.776C155.008 22.776 156.128 23.072 157.12 23.664C158.112 24.24 158.896 25.032 159.472 26.04C160.064 27.048 160.36 28.184 160.36 29.448H159.424C159.424 30.712 159.152 31.848 158.608 32.856C158.08 33.848 157.352 34.64 156.424 35.232C155.496 35.808 154.448 36.096 153.28 36.096ZM153.76 33.936C154.576 33.936 155.304 33.744 155.944 33.36C156.584 32.96 157.088 32.424 157.456 31.752C157.824 31.064 158.008 30.296 158.008 29.448C158.008 28.584 157.824 27.816 157.456 27.144C157.088 26.456 156.584 25.92 155.944 25.536C155.304 25.136 154.576 24.936 153.76 24.936C152.96 24.936 152.232 25.136 151.576 25.536C150.936 25.92 150.424 26.456 150.04 27.144C149.672 27.816 149.488 28.584 149.488 29.448C149.488 30.296 149.672 31.064 150.04 31.752C150.424 32.424 150.936 32.96 151.576 33.36C152.232 33.744 152.96 33.936 153.76 33.936ZM159.136 36.024C158.784 36.024 158.488 35.912 158.248 35.688C158.024 35.448 157.912 35.152 157.912 34.8V31.128L158.368 28.584L160.36 29.448V34.8C160.36 35.152 160.24 35.448 160 35.688C159.776 35.912 159.488 36.024 159.136 36.024ZM167.124 36C166.42 36 165.796 35.808 165.252 35.424C164.708 35.04 164.284 34.52 163.98 33.864C163.676 33.192 163.524 32.424 163.524 31.56V18.456C163.524 18.104 163.636 17.816 163.86 17.592C164.084 17.368 164.372 17.256 164.724 17.256C165.076 17.256 165.364 17.368 165.588 17.592C165.812 17.816 165.924 18.104 165.924 18.456V31.56C165.924 32.152 166.036 32.64 166.26 33.024C166.484 33.408 166.772 33.6 167.124 33.6H167.724C168.044 33.6 168.3 33.712 168.492 33.936C168.7 34.16 168.804 34.448 168.804 34.8C168.804 35.152 168.652 35.44 168.348 35.664C168.044 35.888 167.652 36 167.172 36H167.124ZM172.663 36C172.311 36 172.015 35.88 171.775 35.64C171.551 35.4 171.439 35.104 171.439 34.752V18.504C171.439 18.136 171.551 17.84 171.775 17.616C172.015 17.376 172.311 17.256 172.663 17.256C173.047 17.256 173.367 17.408 173.623 17.712L184.087 31.632V18.504C184.087 18.136 184.207 17.84 184.447 17.616C184.687 17.376 184.983 17.256 185.335 17.256C185.703 17.256 185.999 17.376 186.223 17.616C186.447 17.84 186.559 18.136 186.559 18.504V34.752C186.559 35.104 186.447 35.4 186.223 35.64C185.999 35.88 185.703 36 185.335 36C185.175 36 184.999 35.968 184.807 35.904C184.631 35.824 184.487 35.712 184.375 35.568L173.911 21.648V34.752C173.911 35.104 173.791 35.4 173.551 35.64C173.327 35.88 173.031 36 172.663 36ZM197.289 36.096C195.961 36.096 194.777 35.816 193.737 35.256C192.713 34.68 191.905 33.896 191.313 32.904C190.737 31.896 190.449 30.744 190.449 29.448C190.449 28.136 190.721 26.984 191.265 25.992C191.825 24.984 192.593 24.2 193.569 23.64C194.545 23.064 195.665 22.776 196.929 22.776C198.177 22.776 199.249 23.056 200.145 23.616C201.041 24.16 201.721 24.92 202.185 25.896C202.665 26.856 202.905 27.968 202.905 29.232C202.905 29.536 202.801 29.792 202.593 30C202.385 30.192 202.121 30.288 201.801 30.288H192.129V28.368H201.729L200.745 29.04C200.729 28.24 200.569 27.528 200.265 26.904C199.961 26.264 199.529 25.76 198.969 25.392C198.409 25.024 197.729 24.84 196.929 24.84C196.017 24.84 195.233 25.04 194.577 25.44C193.937 25.84 193.449 26.392 193.113 27.096C192.777 27.784 192.609 28.568 192.609 29.448C192.609 30.328 192.809 31.112 193.209 31.8C193.609 32.488 194.161 33.032 194.865 33.432C195.569 33.832 196.377 34.032 197.289 34.032C197.785 34.032 198.289 33.944 198.801 33.768C199.329 33.576 199.753 33.36 200.073 33.12C200.313 32.944 200.569 32.856 200.841 32.856C201.129 32.84 201.377 32.92 201.585 33.096C201.857 33.336 202.001 33.6 202.017 33.888C202.033 34.176 201.905 34.424 201.633 34.632C201.089 35.064 200.409 35.416 199.593 35.688C198.793 35.96 198.025 36.096 197.289 36.096ZM210.803 36.096C209.683 36.096 208.643 35.928 207.683 35.592C206.739 35.24 206.003 34.8 205.475 34.272C205.235 34.016 205.131 33.728 205.163 33.408C205.211 33.072 205.371 32.8 205.643 32.592C205.963 32.336 206.275 32.232 206.579 32.28C206.899 32.312 207.171 32.448 207.395 32.688C207.667 32.992 208.099 33.28 208.691 33.552C209.299 33.808 209.971 33.936 210.707 33.936C211.635 33.936 212.339 33.784 212.819 33.48C213.315 33.176 213.571 32.784 213.587 32.304C213.603 31.824 213.371 31.408 212.891 31.056C212.427 30.704 211.571 30.416 210.323 30.192C208.707 29.872 207.531 29.392 206.795 28.752C206.075 28.112 205.715 27.328 205.715 26.4C205.715 25.584 205.955 24.912 206.435 24.384C206.915 23.84 207.531 23.44 208.283 23.184C209.035 22.912 209.819 22.776 210.635 22.776C211.691 22.776 212.627 22.944 213.443 23.28C214.259 23.616 214.907 24.08 215.387 24.672C215.611 24.928 215.715 25.2 215.699 25.488C215.683 25.76 215.547 25.992 215.291 26.184C215.035 26.36 214.731 26.416 214.379 26.352C214.027 26.288 213.731 26.144 213.491 25.92C213.091 25.536 212.659 25.272 212.195 25.128C211.731 24.984 211.195 24.912 210.587 24.912C209.883 24.912 209.283 25.032 208.787 25.272C208.307 25.512 208.067 25.864 208.067 26.328C208.067 26.616 208.139 26.88 208.283 27.12C208.443 27.344 208.747 27.552 209.195 27.744C209.643 27.92 210.299 28.096 211.163 28.272C212.363 28.512 213.307 28.816 213.995 29.184C214.699 29.552 215.203 29.984 215.507 30.48C215.811 30.96 215.963 31.52 215.963 32.16C215.963 32.896 215.763 33.56 215.363 34.152C214.979 34.744 214.403 35.216 213.635 35.568C212.883 35.92 211.939 36.096 210.803 36.096ZM223.834 36C223.034 36 222.314 35.8 221.674 35.4C221.034 34.984 220.53 34.424 220.162 33.72C219.794 33.016 219.61 32.224 219.61 31.344V19.896C219.61 19.544 219.722 19.256 219.946 19.032C220.17 18.808 220.458 18.696 220.81 18.696C221.162 18.696 221.45 18.808 221.674 19.032C221.898 19.256 222.01 19.544 222.01 19.896V31.344C222.01 31.984 222.186 32.52 222.538 32.952C222.89 33.384 223.322 33.6 223.834 33.6H224.65C224.938 33.6 225.178 33.712 225.37 33.936C225.578 34.16 225.682 34.448 225.682 34.8C225.682 35.152 225.546 35.44 225.274 35.664C225.018 35.888 224.682 36 224.266 36H223.834ZM218.506 25.416C218.17 25.416 217.898 25.32 217.69 25.128C217.482 24.936 217.378 24.696 217.378 24.408C217.378 24.088 217.482 23.832 217.69 23.64C217.898 23.448 218.17 23.352 218.506 23.352H224.05C224.386 23.352 224.658 23.448 224.866 23.64C225.074 23.832 225.178 24.088 225.178 24.408C225.178 24.696 225.074 24.936 224.866 25.128C224.658 25.32 224.386 25.416 224.05 25.416H218.506ZM237.331 36.24C236.035 36.24 234.819 36 233.683 35.52C232.563 35.024 231.579 34.344 230.731 33.48C229.899 32.6 229.243 31.576 228.763 30.408C228.299 29.24 228.067 27.976 228.067 26.616C228.067 25.272 228.299 24.024 228.763 22.872C229.243 21.704 229.899 20.688 230.731 19.824C231.579 18.944 232.563 18.256 233.683 17.76C234.803 17.264 236.019 17.016 237.331 17.016C238.563 17.016 239.619 17.176 240.499 17.496C241.395 17.816 242.291 18.344 243.187 19.08C243.315 19.176 243.411 19.28 243.475 19.392C243.555 19.488 243.603 19.592 243.619 19.704C243.651 19.8 243.667 19.92 243.667 20.064C243.667 20.368 243.555 20.624 243.331 20.832C243.123 21.024 242.867 21.136 242.563 21.168C242.259 21.184 241.963 21.08 241.675 20.856C241.083 20.344 240.467 19.952 239.827 19.68C239.203 19.408 238.371 19.272 237.331 19.272C236.387 19.272 235.499 19.464 234.667 19.848C233.835 20.232 233.099 20.76 232.459 21.432C231.835 22.104 231.347 22.888 230.995 23.784C230.643 24.664 230.467 25.608 230.467 26.616C230.467 27.64 230.643 28.6 230.995 29.496C231.347 30.376 231.835 31.152 232.459 31.824C233.099 32.496 233.835 33.024 234.667 33.408C235.499 33.776 236.387 33.96 237.331 33.96C238.147 33.96 238.915 33.824 239.635 33.552C240.371 33.264 241.075 32.872 241.747 32.376C242.035 32.168 242.315 32.08 242.587 32.112C242.875 32.128 243.115 32.24 243.307 32.448C243.499 32.64 243.595 32.912 243.595 33.264C243.595 33.424 243.563 33.584 243.499 33.744C243.435 33.888 243.339 34.024 243.211 34.152C242.347 34.84 241.419 35.36 240.427 35.712C239.451 36.064 238.419 36.24 237.331 36.24ZM252.339 36.096C251.043 36.096 249.899 35.816 248.907 35.256C247.915 34.68 247.131 33.896 246.555 32.904C245.995 31.896 245.715 30.744 245.715 29.448C245.715 28.136 245.995 26.984 246.555 25.992C247.131 24.984 247.915 24.2 248.907 23.64C249.899 23.064 251.043 22.776 252.339 22.776C253.619 22.776 254.755 23.064 255.747 23.64C256.739 24.2 257.515 24.984 258.075 25.992C258.651 26.984 258.939 28.136 258.939 29.448C258.939 30.744 258.659 31.896 258.099 32.904C257.539 33.896 256.763 34.68 255.771 35.256C254.779 35.816 253.635 36.096 252.339 36.096ZM252.339 33.936C253.171 33.936 253.907 33.744 254.547 33.36C255.187 32.976 255.683 32.448 256.035 31.776C256.403 31.104 256.587 30.328 256.587 29.448C256.587 28.568 256.403 27.792 256.035 27.12C255.683 26.432 255.187 25.896 254.547 25.512C253.907 25.128 253.171 24.936 252.339 24.936C251.507 24.936 250.771 25.128 250.131 25.512C249.491 25.896 248.987 26.432 248.619 27.12C248.251 27.792 248.067 28.568 248.067 29.448C248.067 30.328 248.251 31.104 248.619 31.776C248.987 32.448 249.491 32.976 250.131 33.36C250.771 33.744 251.507 33.936 252.339 33.936ZM263.758 27.792C263.758 26.832 263.99 25.976 264.454 25.224C264.934 24.456 265.574 23.848 266.374 23.4C267.174 22.952 268.054 22.728 269.014 22.728C269.974 22.728 270.686 22.888 271.15 23.208C271.63 23.512 271.814 23.88 271.702 24.312C271.654 24.536 271.558 24.712 271.414 24.84C271.286 24.952 271.134 25.024 270.958 25.056C270.782 25.088 270.59 25.08 270.382 25.032C269.358 24.824 268.438 24.808 267.622 24.984C266.806 25.16 266.158 25.488 265.678 25.968C265.214 26.448 264.982 27.056 264.982 27.792H263.758ZM263.782 36C263.398 36 263.102 35.904 262.894 35.712C262.686 35.504 262.582 35.2 262.582 34.8V24.072C262.582 23.688 262.686 23.392 262.894 23.184C263.102 22.976 263.398 22.872 263.782 22.872C264.182 22.872 264.478 22.976 264.67 23.184C264.878 23.376 264.982 23.672 264.982 24.072V34.8C264.982 35.184 264.878 35.48 264.67 35.688C264.478 35.896 264.182 36 263.782 36ZM279.461 36.096C278.133 36.096 276.949 35.816 275.909 35.256C274.885 34.68 274.077 33.896 273.485 32.904C272.909 31.896 272.621 30.744 272.621 29.448C272.621 28.136 272.893 26.984 273.437 25.992C273.997 24.984 274.765 24.2 275.741 23.64C276.717 23.064 277.837 22.776 279.101 22.776C280.349 22.776 281.421 23.056 282.317 23.616C283.213 24.16 283.893 24.92 284.357 25.896C284.837 26.856 285.077 27.968 285.077 29.232C285.077 29.536 284.973 29.792 284.765 30C284.557 30.192 284.293 30.288 283.973 30.288H274.301V28.368H283.901L282.917 29.04C282.901 28.24 282.741 27.528 282.437 26.904C282.133 26.264 281.701 25.76 281.141 25.392C280.581 25.024 279.901 24.84 279.101 24.84C278.189 24.84 277.405 25.04 276.749 25.44C276.109 25.84 275.621 26.392 275.285 27.096C274.949 27.784 274.781 28.568 274.781 29.448C274.781 30.328 274.981 31.112 275.381 31.8C275.781 32.488 276.333 33.032 277.037 33.432C277.741 33.832 278.549 34.032 279.461 34.032C279.957 34.032 280.461 33.944 280.973 33.768C281.501 33.576 281.925 33.36 282.245 33.12C282.485 32.944 282.741 32.856 283.013 32.856C283.301 32.84 283.549 32.92 283.757 33.096C284.029 33.336 284.173 33.6 284.189 33.888C284.205 34.176 284.077 34.424 283.805 34.632C283.261 35.064 282.581 35.416 281.765 35.688C280.965 35.96 280.197 36.096 279.461 36.096Z" fill="#6100EC"/>
<rect x="4" y="5" width="46" height="46" rx="4" fill="#6100EC"/>
<path d="M31.4236 39.1328C31.1332 39.4232 30.7901 39.5684 30.3941 39.5684C29.9981 39.5684 29.6549 39.4232 29.3645 39.1328L15.9606 25.7289C15.657 25.4253 15.5118 25.0821 15.525 24.6993C15.525 24.3033 15.6702 23.9602 15.9606 23.6698L19.9204 19.71C20.9104 18.72 22.0059 18.0601 23.207 17.7301C24.4082 17.4001 25.6093 17.4133 26.8105 17.7697C28.0116 18.0997 29.1137 18.7662 30.1169 19.7694C31.0804 20.7329 31.7206 21.8087 32.0374 22.9966C32.3674 24.1714 32.3608 25.3527 32.0176 26.5406C31.6744 27.7286 31.0078 28.8175 30.0179 29.8075L27.0876 32.7377L31.4236 37.0737C31.714 37.3641 31.8592 37.7073 31.8592 38.1032C31.8724 38.486 31.7272 38.8292 31.4236 39.1328ZM25.1869 30.837L28.1172 27.9068C28.7244 27.2996 29.1269 26.633 29.3249 25.9071C29.5229 25.1811 29.5229 24.4551 29.3249 23.7292C29.1269 23.0032 28.731 22.3432 28.137 21.7493C27.5034 21.1157 26.8171 20.6933 26.0779 20.4821C25.3255 20.2578 24.5798 20.238 23.8406 20.4227C23.1015 20.6075 22.4283 21.0035 21.8211 21.6107L18.8909 24.5409L25.1869 30.837Z" fill="white"/>
</svg>
