<svg width="46" height="46" viewBox="0 0 46 46" fill="none" xmlns="http://www.w3.org/2000/svg">
<rect width="46" height="46" rx="4" fill="#6100EC"/>
<path d="M27.4236 34.1328C27.1332 34.4232 26.7901 34.5684 26.3941 34.5684C25.9981 34.5684 25.6549 34.4232 25.3645 34.1328L11.9606 20.7289C11.657 20.4253 11.5118 20.0821 11.525 19.6993C11.525 19.3033 11.6702 18.9602 11.9606 18.6698L15.9204 14.71C16.9104 13.72 18.0059 13.0601 19.207 12.7301C20.4082 12.4001 21.6093 12.4133 22.8105 12.7697C24.0116 13.0997 25.1137 13.7662 26.1169 14.7694C27.0804 15.7329 27.7206 16.8087 28.0374 17.9966C28.3674 19.1714 28.3608 20.3527 28.0176 21.5406C27.6744 22.7286 27.0078 23.8175 26.0179 24.8075L23.0876 27.7377L27.4236 32.0737C27.714 32.3641 27.8592 32.7073 27.8592 33.1032C27.8724 33.486 27.7272 33.8292 27.4236 34.1328ZM21.1869 25.837L24.1172 22.9068C24.7244 22.2996 25.1269 21.633 25.3249 20.9071C25.5229 20.1811 25.5229 19.4551 25.3249 18.7292C25.1269 18.0032 24.731 17.3432 24.137 16.7493C23.5034 16.1157 22.8171 15.6933 22.0779 15.4821C21.3255 15.2578 20.5798 15.238 19.8406 15.4227C19.1015 15.6075 18.4283 16.0035 17.8211 16.6107L14.8909 19.5409L21.1869 25.837Z" fill="white"/>
</svg>
