<svg width="267" height="46" viewBox="0 0 267 46" fill="none" xmlns="http://www.w3.org/2000/svg">
<path d="M53.648 31C53.296 31 53 30.88 52.76 30.64C52.52 30.4 52.4 30.104 52.4 29.752V13.504C52.4 13.136 52.52 12.84 52.76 12.616C53 12.376 53.296 12.256 53.648 12.256H58.448C59.648 12.256 60.712 12.52 61.64 13.048C62.568 13.576 63.288 14.312 63.8 15.256C64.328 16.184 64.592 17.256 64.592 18.472C64.592 19.64 64.328 20.68 63.8 21.592C63.288 22.504 62.568 23.216 61.64 23.728C60.712 24.24 59.648 24.496 58.448 24.496H54.896V29.752C54.896 30.104 54.776 30.4 54.536 30.64C54.312 30.88 54.016 31 53.648 31ZM54.896 22.192H58.448C59.184 22.192 59.832 22.032 60.392 21.712C60.952 21.392 61.392 20.952 61.712 20.392C62.032 19.832 62.192 19.192 62.192 18.472C62.192 17.704 62.032 17.032 61.712 16.456C61.392 15.864 60.952 15.4 60.392 15.064C59.832 14.728 59.184 14.56 58.448 14.56H54.896V22.192ZM72.0924 31.096C70.7644 31.096 69.5804 30.816 68.5404 30.256C67.5164 29.68 66.7084 28.896 66.1164 27.904C65.5404 26.896 65.2524 25.744 65.2524 24.448C65.2524 23.136 65.5244 21.984 66.0684 20.992C66.6284 19.984 67.3964 19.2 68.3724 18.64C69.3484 18.064 70.4684 17.776 71.7324 17.776C72.9804 17.776 74.0524 18.056 74.9484 18.616C75.8444 19.16 76.5244 19.92 76.9884 20.896C77.4684 21.856 77.7084 22.968 77.7084 24.232C77.7084 24.536 77.6044 24.792 77.3964 25C77.1884 25.192 76.9244 25.288 76.6044 25.288H66.9324V23.368H76.5324L75.5484 24.04C75.5324 23.24 75.3724 22.528 75.0684 21.904C74.7644 21.264 74.3324 20.76 73.7724 20.392C73.2124 20.024 72.5324 19.84 71.7324 19.84C70.8204 19.84 70.0364 20.04 69.3804 20.44C68.7404 20.84 68.2524 21.392 67.9164 22.096C67.5804 22.784 67.4124 23.568 67.4124 24.448C67.4124 25.328 67.6124 26.112 68.0124 26.8C68.4124 27.488 68.9644 28.032 69.6684 28.432C70.3724 28.832 71.1804 29.032 72.0924 29.032C72.5884 29.032 73.0924 28.944 73.6044 28.768C74.1324 28.576 74.5564 28.36 74.8764 28.12C75.1164 27.944 75.3724 27.856 75.6444 27.856C75.9324 27.84 76.1804 27.92 76.3884 28.096C76.6604 28.336 76.8044 28.6 76.8204 28.888C76.8364 29.176 76.7084 29.424 76.4364 29.632C75.8924 30.064 75.2124 30.416 74.3964 30.688C73.5964 30.96 72.8284 31.096 72.0924 31.096ZM81.2866 22.792C81.2866 21.832 81.5186 20.976 81.9826 20.224C82.4626 19.456 83.1026 18.848 83.9026 18.4C84.7026 17.952 85.5826 17.728 86.5426 17.728C87.5026 17.728 88.2146 17.888 88.6786 18.208C89.1586 18.512 89.3426 18.88 89.2306 19.312C89.1826 19.536 89.0866 19.712 88.9426 19.84C88.8146 19.952 88.6626 20.024 88.4866 20.056C88.3106 20.088 88.1186 20.08 87.9106 20.032C86.8866 19.824 85.9666 19.808 85.1506 19.984C84.3346 20.16 83.6866 20.488 83.2066 20.968C82.7426 21.448 82.5106 22.056 82.5106 22.792H81.2866ZM81.3106 31C80.9266 31 80.6306 30.904 80.4226 30.712C80.2146 30.504 80.1106 30.2 80.1106 29.8V19.072C80.1106 18.688 80.2146 18.392 80.4226 18.184C80.6306 17.976 80.9266 17.872 81.3106 17.872C81.7106 17.872 82.0066 17.976 82.1986 18.184C82.4066 18.376 82.5106 18.672 82.5106 19.072V29.8C82.5106 30.184 82.4066 30.48 82.1986 30.688C82.0066 30.896 81.7106 31 81.3106 31ZM95.8385 31.096C94.7185 31.096 93.6785 30.928 92.7185 30.592C91.7745 30.24 91.0385 29.8 90.5105 29.272C90.2705 29.016 90.1665 28.728 90.1985 28.408C90.2465 28.072 90.4065 27.8 90.6785 27.592C90.9985 27.336 91.3105 27.232 91.6145 27.28C91.9345 27.312 92.2065 27.448 92.4305 27.688C92.7025 27.992 93.1345 28.28 93.7265 28.552C94.3345 28.808 95.0065 28.936 95.7425 28.936C96.6705 28.936 97.3745 28.784 97.8545 28.48C98.3505 28.176 98.6065 27.784 98.6225 27.304C98.6385 26.824 98.4065 26.408 97.9265 26.056C97.4625 25.704 96.6065 25.416 95.3585 25.192C93.7425 24.872 92.5665 24.392 91.8305 23.752C91.1105 23.112 90.7505 22.328 90.7505 21.4C90.7505 20.584 90.9905 19.912 91.4705 19.384C91.9505 18.84 92.5665 18.44 93.3185 18.184C94.0705 17.912 94.8545 17.776 95.6705 17.776C96.7265 17.776 97.6625 17.944 98.4785 18.28C99.2945 18.616 99.9425 19.08 100.423 19.672C100.647 19.928 100.751 20.2 100.735 20.488C100.719 20.76 100.583 20.992 100.327 21.184C100.071 21.36 99.7665 21.416 99.4145 21.352C99.0625 21.288 98.7665 21.144 98.5265 20.92C98.1265 20.536 97.6945 20.272 97.2305 20.128C96.7665 19.984 96.2305 19.912 95.6225 19.912C94.9185 19.912 94.3185 20.032 93.8225 20.272C93.3425 20.512 93.1025 20.864 93.1025 21.328C93.1025 21.616 93.1745 21.88 93.3185 22.12C93.4785 22.344 93.7825 22.552 94.2305 22.744C94.6785 22.92 95.3345 23.096 96.1985 23.272C97.3985 23.512 98.3425 23.816 99.0305 24.184C99.7345 24.552 100.239 24.984 100.543 25.48C100.847 25.96 100.999 26.52 100.999 27.16C100.999 27.896 100.799 28.56 100.399 29.152C100.015 29.744 99.4385 30.216 98.6705 30.568C97.9185 30.92 96.9745 31.096 95.8385 31.096ZM109.326 31.096C108.03 31.096 106.886 30.816 105.894 30.256C104.902 29.68 104.118 28.896 103.542 27.904C102.982 26.896 102.702 25.744 102.702 24.448C102.702 23.136 102.982 21.984 103.542 20.992C104.118 19.984 104.902 19.2 105.894 18.64C106.886 18.064 108.03 17.776 109.326 17.776C110.606 17.776 111.742 18.064 112.734 18.64C113.726 19.2 114.502 19.984 115.062 20.992C115.638 21.984 115.926 23.136 115.926 24.448C115.926 25.744 115.646 26.896 115.086 27.904C114.526 28.896 113.75 29.68 112.758 30.256C111.766 30.816 110.622 31.096 109.326 31.096ZM109.326 28.936C110.158 28.936 110.894 28.744 111.534 28.36C112.174 27.976 112.67 27.448 113.022 26.776C113.39 26.104 113.574 25.328 113.574 24.448C113.574 23.568 113.39 22.792 113.022 22.12C112.67 21.432 112.174 20.896 111.534 20.512C110.894 20.128 110.158 19.936 109.326 19.936C108.494 19.936 107.758 20.128 107.118 20.512C106.478 20.896 105.974 21.432 105.606 22.12C105.238 22.792 105.054 23.568 105.054 24.448C105.054 25.328 105.238 26.104 105.606 26.776C105.974 27.448 106.478 27.976 107.118 28.36C107.758 28.744 108.494 28.936 109.326 28.936ZM129.937 31.024C129.585 31.024 129.289 30.912 129.049 30.688C128.825 30.448 128.713 30.152 128.713 29.8V23.896C128.713 22.984 128.545 22.24 128.209 21.664C127.873 21.088 127.417 20.664 126.841 20.392C126.281 20.104 125.633 19.96 124.897 19.96C124.225 19.96 123.617 20.096 123.073 20.368C122.529 20.64 122.097 21.008 121.777 21.472C121.457 21.92 121.297 22.44 121.297 23.032H119.785C119.785 22.024 120.025 21.128 120.505 20.344C121.001 19.544 121.673 18.912 122.521 18.448C123.369 17.984 124.321 17.752 125.377 17.752C126.481 17.752 127.465 17.992 128.329 18.472C129.209 18.936 129.897 19.624 130.393 20.536C130.905 21.448 131.161 22.568 131.161 23.896V29.8C131.161 30.152 131.041 30.448 130.801 30.688C130.577 30.912 130.289 31.024 129.937 31.024ZM120.073 31.024C119.721 31.024 119.425 30.912 119.185 30.688C118.961 30.448 118.849 30.152 118.849 29.8V19.096C118.849 18.728 118.961 18.432 119.185 18.208C119.425 17.984 119.721 17.872 120.073 17.872C120.441 17.872 120.737 17.984 120.961 18.208C121.185 18.432 121.297 18.728 121.297 19.096V29.8C121.297 30.152 121.185 30.448 120.961 30.688C120.737 30.912 120.441 31.024 120.073 31.024ZM139.96 31.096C138.792 31.096 137.744 30.808 136.816 30.232C135.888 29.64 135.152 28.848 134.608 27.856C134.08 26.848 133.816 25.712 133.816 24.448C133.816 23.184 134.104 22.048 134.68 21.04C135.272 20.032 136.064 19.24 137.056 18.664C138.064 18.072 139.192 17.776 140.44 17.776C141.688 17.776 142.808 18.072 143.8 18.664C144.792 19.24 145.576 20.032 146.152 21.04C146.744 22.048 147.04 23.184 147.04 24.448H146.104C146.104 25.712 145.832 26.848 145.288 27.856C144.76 28.848 144.032 29.64 143.104 30.232C142.176 30.808 141.128 31.096 139.96 31.096ZM140.44 28.936C141.256 28.936 141.984 28.744 142.624 28.36C143.264 27.96 143.768 27.424 144.136 26.752C144.504 26.064 144.688 25.296 144.688 24.448C144.688 23.584 144.504 22.816 144.136 22.144C143.768 21.456 143.264 20.92 142.624 20.536C141.984 20.136 141.256 19.936 140.44 19.936C139.64 19.936 138.912 20.136 138.256 20.536C137.616 20.92 137.104 21.456 136.72 22.144C136.352 22.816 136.168 23.584 136.168 24.448C136.168 25.296 136.352 26.064 136.72 26.752C137.104 27.424 137.616 27.96 138.256 28.36C138.912 28.744 139.64 28.936 140.44 28.936ZM145.816 31.024C145.464 31.024 145.168 30.912 144.928 30.688C144.704 30.448 144.592 30.152 144.592 29.8V26.128L145.048 23.584L147.04 24.448V29.8C147.04 30.152 146.92 30.448 146.68 30.688C146.456 30.912 146.168 31.024 145.816 31.024ZM153.084 31C152.38 31 151.756 30.808 151.212 30.424C150.668 30.04 150.244 29.52 149.94 28.864C149.636 28.192 149.484 27.424 149.484 26.56V13.456C149.484 13.104 149.596 12.816 149.82 12.592C150.044 12.368 150.332 12.256 150.684 12.256C151.036 12.256 151.324 12.368 151.548 12.592C151.772 12.816 151.884 13.104 151.884 13.456V26.56C151.884 27.152 151.996 27.64 152.22 28.024C152.444 28.408 152.732 28.6 153.084 28.6H153.684C154.004 28.6 154.26 28.712 154.452 28.936C154.66 29.16 154.764 29.448 154.764 29.8C154.764 30.152 154.612 30.44 154.308 30.664C154.004 30.888 153.612 31 153.132 31H153.084ZM157.903 31C157.551 31 157.255 30.88 157.015 30.64C156.791 30.4 156.679 30.104 156.679 29.752V13.504C156.679 13.136 156.791 12.84 157.015 12.616C157.255 12.376 157.551 12.256 157.903 12.256C158.287 12.256 158.607 12.408 158.863 12.712L169.327 26.632V13.504C169.327 13.136 169.447 12.84 169.687 12.616C169.927 12.376 170.223 12.256 170.575 12.256C170.943 12.256 171.239 12.376 171.463 12.616C171.687 12.84 171.799 13.136 171.799 13.504V29.752C171.799 30.104 171.687 30.4 171.463 30.64C171.239 30.88 170.943 31 170.575 31C170.415 31 170.239 30.968 170.047 30.904C169.871 30.824 169.727 30.712 169.615 30.568L159.151 16.648V29.752C159.151 30.104 159.031 30.4 158.791 30.64C158.567 30.88 158.271 31 157.903 31ZM181.809 31.096C180.481 31.096 179.297 30.816 178.257 30.256C177.233 29.68 176.425 28.896 175.833 27.904C175.257 26.896 174.969 25.744 174.969 24.448C174.969 23.136 175.241 21.984 175.785 20.992C176.345 19.984 177.113 19.2 178.089 18.64C179.065 18.064 180.185 17.776 181.449 17.776C182.697 17.776 183.769 18.056 184.665 18.616C185.561 19.16 186.241 19.92 186.705 20.896C187.185 21.856 187.425 22.968 187.425 24.232C187.425 24.536 187.321 24.792 187.113 25C186.905 25.192 186.641 25.288 186.321 25.288H176.649V23.368H186.249L185.265 24.04C185.249 23.24 185.089 22.528 184.785 21.904C184.481 21.264 184.049 20.76 183.489 20.392C182.929 20.024 182.249 19.84 181.449 19.84C180.537 19.84 179.753 20.04 179.097 20.44C178.457 20.84 177.969 21.392 177.633 22.096C177.297 22.784 177.129 23.568 177.129 24.448C177.129 25.328 177.329 26.112 177.729 26.8C178.129 27.488 178.681 28.032 179.385 28.432C180.089 28.832 180.897 29.032 181.809 29.032C182.305 29.032 182.809 28.944 183.321 28.768C183.849 28.576 184.273 28.36 184.593 28.12C184.833 27.944 185.089 27.856 185.361 27.856C185.649 27.84 185.897 27.92 186.105 28.096C186.377 28.336 186.521 28.6 186.537 28.888C186.553 29.176 186.425 29.424 186.153 29.632C185.609 30.064 184.929 30.416 184.113 30.688C183.313 30.96 182.545 31.096 181.809 31.096ZM194.603 31.096C193.483 31.096 192.443 30.928 191.483 30.592C190.539 30.24 189.803 29.8 189.275 29.272C189.035 29.016 188.931 28.728 188.963 28.408C189.011 28.072 189.171 27.8 189.443 27.592C189.763 27.336 190.075 27.232 190.379 27.28C190.699 27.312 190.971 27.448 191.195 27.688C191.467 27.992 191.899 28.28 192.491 28.552C193.099 28.808 193.771 28.936 194.507 28.936C195.435 28.936 196.139 28.784 196.619 28.48C197.115 28.176 197.371 27.784 197.387 27.304C197.403 26.824 197.171 26.408 196.691 26.056C196.227 25.704 195.371 25.416 194.123 25.192C192.507 24.872 191.331 24.392 190.595 23.752C189.875 23.112 189.515 22.328 189.515 21.4C189.515 20.584 189.755 19.912 190.235 19.384C190.715 18.84 191.331 18.44 192.083 18.184C192.835 17.912 193.619 17.776 194.435 17.776C195.491 17.776 196.427 17.944 197.243 18.28C198.059 18.616 198.707 19.08 199.187 19.672C199.411 19.928 199.515 20.2 199.499 20.488C199.483 20.76 199.347 20.992 199.091 21.184C198.835 21.36 198.531 21.416 198.179 21.352C197.827 21.288 197.531 21.144 197.291 20.92C196.891 20.536 196.459 20.272 195.995 20.128C195.531 19.984 194.995 19.912 194.387 19.912C193.683 19.912 193.083 20.032 192.587 20.272C192.107 20.512 191.867 20.864 191.867 21.328C191.867 21.616 191.939 21.88 192.083 22.12C192.243 22.344 192.547 22.552 192.995 22.744C193.443 22.92 194.099 23.096 194.963 23.272C196.163 23.512 197.107 23.816 197.795 24.184C198.499 24.552 199.003 24.984 199.307 25.48C199.611 25.96 199.763 26.52 199.763 27.16C199.763 27.896 199.563 28.56 199.163 29.152C198.779 29.744 198.203 30.216 197.435 30.568C196.683 30.92 195.739 31.096 194.603 31.096ZM206.914 31C206.114 31 205.394 30.8 204.754 30.4C204.114 29.984 203.61 29.424 203.242 28.72C202.874 28.016 202.69 27.224 202.69 26.344V14.896C202.69 14.544 202.802 14.256 203.026 14.032C203.25 13.808 203.538 13.696 203.89 13.696C204.242 13.696 204.53 13.808 204.754 14.032C204.978 14.256 205.09 14.544 205.09 14.896V26.344C205.09 26.984 205.266 27.52 205.618 27.952C205.97 28.384 206.402 28.6 206.914 28.6H207.73C208.018 28.6 208.258 28.712 208.45 28.936C208.658 29.16 208.762 29.448 208.762 29.8C208.762 30.152 208.626 30.44 208.354 30.664C208.098 30.888 207.762 31 207.346 31H206.914ZM201.586 20.416C201.25 20.416 200.978 20.32 200.77 20.128C200.562 19.936 200.458 19.696 200.458 19.408C200.458 19.088 200.562 18.832 200.77 18.64C200.978 18.448 201.25 18.352 201.586 18.352H207.13C207.466 18.352 207.738 18.448 207.946 18.64C208.154 18.832 208.258 19.088 208.258 19.408C208.258 19.696 208.154 19.936 207.946 20.128C207.738 20.32 207.466 20.416 207.13 20.416H201.586ZM219.691 31.24C218.395 31.24 217.179 31 216.043 30.52C214.923 30.024 213.939 29.344 213.091 28.48C212.259 27.6 211.603 26.576 211.123 25.408C210.659 24.24 210.427 22.976 210.427 21.616C210.427 20.272 210.659 19.024 211.123 17.872C211.603 16.704 212.259 15.688 213.091 14.824C213.939 13.944 214.923 13.256 216.043 12.76C217.163 12.264 218.379 12.016 219.691 12.016C220.923 12.016 221.979 12.176 222.859 12.496C223.755 12.816 224.651 13.344 225.547 14.08C225.675 14.176 225.771 14.28 225.835 14.392C225.915 14.488 225.963 14.592 225.979 14.704C226.011 14.8 226.027 14.92 226.027 15.064C226.027 15.368 225.915 15.624 225.691 15.832C225.483 16.024 225.227 16.136 224.923 16.168C224.619 16.184 224.323 16.08 224.035 15.856C223.443 15.344 222.827 14.952 222.187 14.68C221.563 14.408 220.731 14.272 219.691 14.272C218.747 14.272 217.859 14.464 217.027 14.848C216.195 15.232 215.459 15.76 214.819 16.432C214.195 17.104 213.707 17.888 213.355 18.784C213.003 19.664 212.827 20.608 212.827 21.616C212.827 22.64 213.003 23.6 213.355 24.496C213.707 25.376 214.195 26.152 214.819 26.824C215.459 27.496 216.195 28.024 217.027 28.408C217.859 28.776 218.747 28.96 219.691 28.96C220.507 28.96 221.275 28.824 221.995 28.552C222.731 28.264 223.435 27.872 224.107 27.376C224.395 27.168 224.675 27.08 224.947 27.112C225.235 27.128 225.475 27.24 225.667 27.448C225.859 27.64 225.955 27.912 225.955 28.264C225.955 28.424 225.923 28.584 225.859 28.744C225.795 28.888 225.699 29.024 225.571 29.152C224.707 29.84 223.779 30.36 222.787 30.712C221.811 31.064 220.779 31.24 219.691 31.24ZM233.979 31.096C232.683 31.096 231.539 30.816 230.547 30.256C229.555 29.68 228.771 28.896 228.195 27.904C227.635 26.896 227.355 25.744 227.355 24.448C227.355 23.136 227.635 21.984 228.195 20.992C228.771 19.984 229.555 19.2 230.547 18.64C231.539 18.064 232.683 17.776 233.979 17.776C235.259 17.776 236.395 18.064 237.387 18.64C238.379 19.2 239.155 19.984 239.715 20.992C240.291 21.984 240.579 23.136 240.579 24.448C240.579 25.744 240.299 26.896 239.739 27.904C239.179 28.896 238.403 29.68 237.411 30.256C236.419 30.816 235.275 31.096 233.979 31.096ZM233.979 28.936C234.811 28.936 235.547 28.744 236.187 28.36C236.827 27.976 237.323 27.448 237.675 26.776C238.043 26.104 238.227 25.328 238.227 24.448C238.227 23.568 238.043 22.792 237.675 22.12C237.323 21.432 236.827 20.896 236.187 20.512C235.547 20.128 234.811 19.936 233.979 19.936C233.147 19.936 232.411 20.128 231.771 20.512C231.131 20.896 230.627 21.432 230.259 22.12C229.891 22.792 229.707 23.568 229.707 24.448C229.707 25.328 229.891 26.104 230.259 26.776C230.627 27.448 231.131 27.976 231.771 28.36C232.411 28.744 233.147 28.936 233.979 28.936ZM244.678 22.792C244.678 21.832 244.91 20.976 245.374 20.224C245.854 19.456 246.494 18.848 247.294 18.4C248.094 17.952 248.974 17.728 249.934 17.728C250.894 17.728 251.606 17.888 252.07 18.208C252.55 18.512 252.734 18.88 252.622 19.312C252.574 19.536 252.478 19.712 252.334 19.84C252.206 19.952 252.054 20.024 251.878 20.056C251.702 20.088 251.51 20.08 251.302 20.032C250.278 19.824 249.358 19.808 248.542 19.984C247.726 20.16 247.078 20.488 246.598 20.968C246.134 21.448 245.902 22.056 245.902 22.792H244.678ZM244.702 31C244.318 31 244.022 30.904 243.814 30.712C243.606 30.504 243.502 30.2 243.502 29.8V19.072C243.502 18.688 243.606 18.392 243.814 18.184C244.022 17.976 244.318 17.872 244.702 17.872C245.102 17.872 245.398 17.976 245.59 18.184C245.798 18.376 245.902 18.672 245.902 19.072V29.8C245.902 30.184 245.798 30.48 245.59 30.688C245.398 30.896 245.102 31 244.702 31ZM259.661 31.096C258.333 31.096 257.149 30.816 256.109 30.256C255.085 29.68 254.277 28.896 253.685 27.904C253.109 26.896 252.821 25.744 252.821 24.448C252.821 23.136 253.093 21.984 253.637 20.992C254.197 19.984 254.965 19.2 255.941 18.64C256.917 18.064 258.037 17.776 259.301 17.776C260.549 17.776 261.621 18.056 262.517 18.616C263.413 19.16 264.093 19.92 264.557 20.896C265.037 21.856 265.277 22.968 265.277 24.232C265.277 24.536 265.173 24.792 264.965 25C264.757 25.192 264.493 25.288 264.173 25.288H254.501V23.368H264.101L263.117 24.04C263.101 23.24 262.941 22.528 262.637 21.904C262.333 21.264 261.901 20.76 261.341 20.392C260.781 20.024 260.101 19.84 259.301 19.84C258.389 19.84 257.605 20.04 256.949 20.44C256.309 20.84 255.821 21.392 255.485 22.096C255.149 22.784 254.981 23.568 254.981 24.448C254.981 25.328 255.181 26.112 255.581 26.8C255.981 27.488 256.533 28.032 257.237 28.432C257.941 28.832 258.749 29.032 259.661 29.032C260.157 29.032 260.661 28.944 261.173 28.768C261.701 28.576 262.125 28.36 262.445 28.12C262.685 27.944 262.941 27.856 263.213 27.856C263.501 27.84 263.749 27.92 263.957 28.096C264.229 28.336 264.373 28.6 264.389 28.888C264.405 29.176 264.277 29.424 264.005 29.632C263.461 30.064 262.781 30.416 261.965 30.688C261.165 30.96 260.397 31.096 259.661 31.096Z" fill="#6100EC"/>
<rect width="46" height="46" rx="4" fill="#6100EC"/>
<path d="M27.4236 34.1328C27.1332 34.4232 26.7901 34.5684 26.3941 34.5684C25.9981 34.5684 25.6549 34.4232 25.3645 34.1328L11.9606 20.7289C11.657 20.4253 11.5118 20.0821 11.525 19.6993C11.525 19.3033 11.6702 18.9602 11.9606 18.6698L15.9204 14.71C16.9104 13.72 18.0059 13.0601 19.207 12.7301C20.4082 12.4001 21.6093 12.4133 22.8105 12.7697C24.0116 13.0997 25.1137 13.7662 26.1169 14.7694C27.0804 15.7329 27.7206 16.8087 28.0374 17.9966C28.3674 19.1714 28.3608 20.3527 28.0176 21.5406C27.6744 22.7286 27.0078 23.8175 26.0179 24.8075L23.0876 27.7377L27.4236 32.0737C27.714 32.3641 27.8592 32.7073 27.8592 33.1032C27.8724 33.486 27.7272 33.8292 27.4236 34.1328ZM21.1869 25.837L24.1172 22.9068C24.7244 22.2996 25.1269 21.633 25.3249 20.9071C25.5229 20.1811 25.5229 19.4551 25.3249 18.7292C25.1269 18.0032 24.731 17.3432 24.137 16.7493C23.5034 16.1157 22.8171 15.6933 22.0779 15.4821C21.3255 15.2578 20.5798 15.238 19.8406 15.4227C19.1015 15.6075 18.4283 16.0035 17.8211 16.6107L14.8909 19.5409L21.1869 25.837Z" fill="white"/>
</svg>
